<svg xmlns="http://www.w3.org/2000/svg" width="64" height="64" fill-rule="evenodd" stroke-linejoin="round" stroke-miterlimit="2" clip-rule="evenodd"><path d="M19.289,12.005C20.149,9.113 22.83,7 26,7C29.863,7 33,10.137 33,14C33,14 33,48 33,48C33,52.967 28.967,57 24,57C19.033,57 15,52.967 15,48L15,47.929C11.61,47.444 9,44.524 9,41C9,39.708 9.351,38.497 9.963,37.457C7.572,35.839 6,33.102 6,30C6,26.386 8.135,23.266 11.213,21.835C11.073,21.246 11,20.631 11,20C11,15.585 14.585,12 19,12C19.097,12 19.193,12.002 19.289,12.005ZM31,14L31,48C31,51.863 27.863,55 24,55C20.137,55 17,51.863 17,48C17,47.662 17.012,47.034 16.999,46.912C16.908,46.064 16.145,46 16,46C13.24,46 11,43.76 11,41C11,39.778 11.439,38.658 12.168,37.789C12.365,37.555 12.444,37.244 12.382,36.945C12.321,36.646 12.126,36.391 11.853,36.254C9.569,35.1 8,32.732 8,30C8,26.923 9.99,24.306 12.752,23.369C13.008,23.282 13.218,23.096 13.334,22.852C13.45,22.609 13.463,22.329 13.369,22.076C13.13,21.429 13,20.729 13,20C13,16.689 15.689,14 19,14C19.312,14 19.619,14.024 19.918,14.07C20.464,14.154 20.974,13.779 21.058,13.234C21.427,10.837 23.501,9 26,9C28.76,9 31,11.24 31,14Z"/><path d="M49,47.929L49,48C49,52.967 44.967,57 40,57C35.033,57 31,52.967 31,48L31,14C31,10.137 34.137,7 38,7C41.17,7 43.851,9.113 44.711,12.005C44.807,12.002 44.903,12 45,12C49.415,12 53,15.585 53,20C53,20.631 52.927,21.246 52.787,21.835C55.865,23.266 58,26.386 58,30C58,33.102 56.428,35.839 54.037,37.457C54.649,38.497 55,39.708 55,41C55,44.524 52.39,47.444 49,47.929ZM33,14C33,11.24 35.24,9 38,9C40.499,9 42.573,10.837 42.942,13.234C43.026,13.779 43.536,14.154 44.082,14.07C44.381,14.024 44.688,14 45,14C48.311,14 51,16.689 51,20C51,20.729 50.87,21.429 50.631,22.076C50.537,22.329 50.55,22.609 50.666,22.852C50.782,23.096 50.992,23.282 51.248,23.369C54.01,24.306 56,26.923 56,30C56,32.732 54.431,35.1 52.147,36.254C51.874,36.391 51.679,36.646 51.618,36.945C51.556,37.244 51.635,37.555 51.832,37.789C52.561,38.658 53,39.778 53,41C53,43.76 50.76,46 48,46C47.855,46 47.092,46.064 47.001,46.912C46.988,47.034 47,47.662 47,48C47,51.863 43.863,55 40,55C36.137,55 33,51.863 33,48L33,14Z"/><path d="M33 14C33 10.137 29.863 7 26 7 22.137 7 19 10.137 19 14 19 15.107 19.258 16.154 19.716 17.085 19.959 17.58 20.559 17.784 21.054 17.54 21.55 17.297 21.754 16.697 21.51 16.202 21.183 15.537 21 14.79 21 14 21 11.24 23.24 9 26 9 28.76 9 31 11.24 31 14 31 14.552 31.448 15 32 15 32.552 15 33 14.552 33 14zM16.341 12.454C13.231 13.551 11 16.517 11 20 11 24.415 14.585 28 19 28 19.552 28 20 27.552 20 27 20 26.448 19.552 26 19 26 15.689 26 13 23.311 13 20 13 17.387 14.673 15.162 17.006 14.34 17.527 14.156 17.8 13.584 17.616 13.064 17.433 12.543 16.861 12.27 16.341 12.454z"/><path d="M11.666 21.639C8.347 22.965 6 26.21 6 30 6 34.967 10.033 39 15 39 15.552 39 16 38.552 16 38 16 37.448 15.552 37 15 37 11.137 37 8 33.863 8 30 8 27.052 9.826 24.527 12.408 23.496 12.92 23.291 13.17 22.709 12.966 22.197 12.761 21.684 12.179 21.434 11.666 21.639zM18.032 41.265C16.173 42.914 15 45.321 15 48 15 52.967 19.033 57 24 57 28.967 57 33 52.967 33 48 33 47.448 32.552 47 32 47 31.448 47 31 47.448 31 48 31 51.863 27.863 55 24 55 20.137 55 17 51.863 17 48 17 45.916 17.913 44.044 19.359 42.761 19.772 42.395 19.81 41.763 19.444 41.35 19.078 40.937 18.445 40.899 18.032 41.265z"/><path d="M20.5 47C23.536 47 26 44.536 26 41.5 26 38.464 23.536 36 20.5 36 19.592 36 18.735 36.221 17.98 36.611 17.489 36.864 17.297 37.468 17.55 37.958 17.804 38.449 18.408 38.641 18.898 38.388 19.378 38.14 19.923 38 20.5 38 22.432 38 24 39.568 24 41.5 24 43.432 22.432 45 20.5 45 19.948 45 19.5 45.448 19.5 46 19.5 46.552 19.948 47 20.5 47zM14.612 31.175C16.758 33.322 20.244 33.322 22.39 31.175 24.536 29.029 24.536 25.544 22.39 23.397 21.748 22.755 20.986 22.305 20.176 22.047 19.65 21.88 19.087 22.171 18.919 22.696 18.752 23.222 19.043 23.785 19.569 23.953 20.084 24.117 20.568 24.403 20.976 24.811 22.342 26.177 22.342 28.395 20.976 29.761 19.61 31.127 17.392 31.127 16.026 29.761 15.636 29.371 15.002 29.371 14.612 29.761 14.222 30.151 14.222 30.785 14.612 31.175zM37 17L30 17C29.204 17 28.441 16.684 27.879 16.121 27.316 15.559 27 14.796 27 14 27 14 27 13 27 13 27 12.448 26.552 12 26 12 25.448 12 25 12.448 25 13L25 14C25 15.326 25.527 16.598 26.464 17.536 27.402 18.473 28.674 19 30 19 33.146 19 37 19 37 19 37.552 19 38 18.552 38 18 38 17.448 37.552 17 37 17zM37 46L29.211 46C28.224 46 27.259 46.292 26.438 46.84 25.566 47.421 24.445 48.168 24.445 48.168 23.986 48.474 23.862 49.095 24.168 49.555 24.474 50.014 25.095 50.138 25.555 49.832 25.555 49.832 26.676 49.085 27.547 48.504 28.04 48.175 28.619 48 29.211 48L37 48C37.552 48 38 47.552 38 47 38 46.448 37.552 46 37 46zM41 36L31 36C30.204 36 29.441 35.684 28.879 35.121 28.316 34.559 28 33.796 28 33 28 30.216 28 27 28 27 28 26.448 27.552 26 27 26 26.448 26 26 26.448 26 27 26 27 26 30.216 26 33 26 34.326 26.527 35.598 27.464 36.536 28.402 37.473 29.674 38 31 38 35.138 38 41 38 41 38 41.552 38 42 37.552 42 37 42 36.448 41.552 36 41 36z"/><path d="M44 26L40.657 26C39.331 26 38.059 26.527 37.121 27.464 35.129 29.457 31.293 33.293 31.293 33.293 30.903 33.683 30.903 34.317 31.293 34.707 31.683 35.097 32.317 35.097 32.707 34.707 32.707 34.707 36.543 30.871 38.536 28.879 39.098 28.316 39.861 28 40.657 28 42.112 28 44 28 44 28 44.552 28 45 27.552 45 27 45 26.448 44.552 26 44 26zM40 14C37.792 14 36 15.792 36 18 36 20.208 37.792 22 40 22 42.208 22 44 20.208 44 18 44 15.792 42.208 14 40 14zM40 16C41.104 16 42 16.896 42 18 42 19.104 41.104 20 40 20 38.896 20 38 19.104 38 18 38 16.896 38.896 16 40 16z"/><path d="M47 23C44.792 23 43 24.792 43 27 43 29.208 44.792 31 47 31 49.208 31 51 29.208 51 27 51 24.792 49.208 23 47 23zM47 25C48.104 25 49 25.896 49 27 49 28.104 48.104 29 47 29 45.896 29 45 28.104 45 27 45 25.896 45.896 25 47 25zM44 33C41.792 33 40 34.792 40 37 40 39.208 41.792 41 44 41 46.208 41 48 39.208 48 37 48 34.792 46.208 33 44 33zM44 35C45.104 35 46 35.896 46 37 46 38.104 45.104 39 44 39 42.896 39 42 38.104 42 37 42 35.896 42.896 35 44 35zM40 43C37.792 43 36 44.792 36 47 36 49.208 37.792 51 40 51 42.208 51 44 49.208 44 47 44 44.792 42.208 43 40 43zM40 45C41.104 45 42 45.896 42 47 42 48.104 41.104 49 40 49 38.896 49 38 48.104 38 47 38 45.896 38.896 45 40 45z"/></svg>