<svg xmlns="http://www.w3.org/2000/svg" enable-background="new 0 0 512 512" viewBox="0 0 512 512"><path fill="none" d="M310.5,316.8c0-2.7,1-5.2,2.9-7.1c1.9-1.9,4.4-2.9,7.1-2.9h60.9v-57.6H320c-5.5,0-10-4.4-10-9.9l-0.3-45.5
		c0,0,0,0,0-0.1c0-18.2,14.8-33.1,33.1-33.1h38.5V97h-87c-26.5,0-48.1,21.6-48.1,48.1l0.5,94c0,2.7-1,5.2-2.9,7.1
		c-1.9,1.9-4.4,2.9-7.1,2.9h-58.6v57.6h59c5.5,0,10,4.4,10,10l0.8,169.3h63.5L310.5,316.8z"/><path fill="none" d="M464.1,26H47.9C35.8,26,26,35.8,26,47.9v416.1c0,12.1,9.8,21.9,21.9,21.9h180l-0.8-159.3h-59.1
		c-5.5,0-10-4.5-10-10v-77.6c0-5.5,4.5-10,10-10h58.6l-0.4-84c0-37.6,30.5-68.1,68.1-68.1h97c5.5,0,10,4.5,10,10v83.5
		c0,5.5-4.5,10-10,10h-48.5c-7.2,0-13.1,5.9-13.1,13.1l0.2,35.5h61.4c5.5,0,10,4.5,10,10v77.6c0,5.5-4.5,10-10,10h-60.8l0.9,159.3
		h132.7c12.1,0,21.9-9.8,21.9-21.9V47.9C486,35.8,476.2,26,464.1,26z"/><path fill="#231f20" d="M464.1,6H47.9C24.8,6,6,24.8,6,47.9v416.1C6,487.2,24.8,506,47.9,506h190c0,0,0,0,0,0h83.5c0,0,0,0,0,0h142.6
		c23.1,0,41.9-18.8,41.9-41.9V47.9C506,24.8,487.2,6,464.1,6z M247.1,316.7c0-5.5-4.5-10-10-10h-59v-57.6h58.6
		c2.7,0,5.2-1.1,7.1-2.9c1.9-1.9,2.9-4.4,2.9-7.1l-0.5-94c0-26.5,21.6-48.1,48.1-48.1h87v63.5h-38.5c-18.3,0-33.1,14.8-33.1,33.1
		c0,0,0,0,0,0.1l0.3,45.5c0,5.5,4.5,9.9,10,9.9h61.3v57.6h-60.9c-2.7,0-5.2,1.1-7.1,2.9c-1.9,1.9-2.9,4.4-2.9,7.1l1,169.2h-63.5
		L247.1,316.7z M486,464.1c0,12.1-9.8,21.9-21.9,21.9H331.4l-0.9-159.3h60.8c5.5,0,10-4.5,10-10v-77.6c0-5.5-4.5-10-10-10H330
		l-0.2-35.5c0-7.2,5.9-13.1,13.1-13.1h48.5c5.5,0,10-4.5,10-10V87c0-5.5-4.5-10-10-10h-97c-37.5,0-68.1,30.5-68.1,68.1l0.4,84h-58.6
		c-5.5,0-10,4.5-10,10v77.6c0,5.5,4.5,10,10,10h59.1l0.8,159.3h-180c-12.1,0-21.9-9.8-21.9-21.9V47.9C26,35.8,35.8,26,47.9,26h416.1
		c12.1,0,21.9,9.8,21.9,21.9V464.1z"/></svg>