<svg xmlns="http://www.w3.org/2000/svg" enable-background="new 0 0 512 512" viewBox="0 0 512 512"><path fill="none" d="M401.7 101.9c-7.8 0-14.1 6.3-14.1 14.1s6.3 14.1 14.1 14.1 14.1-6.3 14.1-14.1S409.5 101.9 401.7 101.9zM256 153c-56.8 0-103 46.2-103 103s46.2 103 103 103 103-46.2 103-103S312.8 153 256 153z"/><path fill="none" d="M399.5,29.5h-287C64.8,29.5,26,68.3,26,116v280c0,47.7,38.8,86.5,86.5,86.5h287c47.7,0,86.5-38.8,86.5-86.5
		V116C486,68.3,447.2,29.5,399.5,29.5z M256,379c-67.8,0-123-55.2-123-123s55.2-123,123-123s123,55.2,123,123S323.8,379,256,379z
		 M401.7,150.1c-18.8,0-34.1-15.3-34.1-34.1s15.3-34.1,34.1-34.1s34.1,15.3,34.1,34.1S420.5,150.1,401.7,150.1z"/><path fill="#231f20" d="M399.5,9.5h-287C53.8,9.5,6,57.3,6,116v280c0,58.7,47.8,106.5,106.5,106.5h287c58.7,0,106.5-47.8,106.5-106.5
		V116C506,57.3,458.2,9.5,399.5,9.5z M486,396c0,47.7-38.8,86.5-86.5,86.5h-287C64.8,482.5,26,443.7,26,396V116
		c0-47.7,38.8-86.5,86.5-86.5h287c47.7,0,86.5,38.8,86.5,86.5V396z"/><path fill="#231f20" d="M256 133c-67.8 0-123 55.2-123 123s55.2 123 123 123 123-55.2 123-123S323.8 133 256 133zM256 359c-56.8 0-103-46.2-103-103s46.2-103 103-103 103 46.2 103 103S312.8 359 256 359zM401.7 81.9c-18.8 0-34.1 15.3-34.1 34.1s15.3 34.1 34.1 34.1 34.1-15.3 34.1-34.1S420.5 81.9 401.7 81.9zM401.7 130.1c-7.8 0-14.1-6.3-14.1-14.1s6.3-14.1 14.1-14.1 14.1 6.3 14.1 14.1S409.5 130.1 401.7 130.1z"/></svg>