<svg xmlns="http://www.w3.org/2000/svg" enable-background="new 0 0 512 512" viewBox="0 0 512 512"><path fill="none" d="M134.3,92.7c-15.1,0-27.5,12.3-27.5,27.5s12.3,27.5,27.5,27.5s27.5-12.3,27.5-27.5S149.4,92.7,134.3,92.7z"/><rect width="54.9" height="192.1" x="106.8" y="224.5" fill="none"/><path fill="none" d="M399.5,263.1c-6.7-3.9-15.8-6.7-27.6-8.4c-14.6-2.2-29.2-1.3-43.3,2.5c-7.5,2-15.2,4.9-22.8,8.5
		c-3.1,1.4-6.7,1.2-9.6-0.6c-2.9-1.8-4.6-5-4.6-8.4v-32.1h-54.9v192.1h54.9v-75.3c0-20.6,16.8-37.4,37.4-37.4
		c20.6,0,37.4,16.8,37.4,37.4v78h54.9V302.6C421.3,286.5,412.6,270.7,399.5,263.1z"/><path fill="none" d="M464.1,26H47.9C35.8,26,26,35.8,26,47.9v416.1c0,12.1,9.8,21.9,21.9,21.9h416.1c12.1,0,21.9-9.8,21.9-21.9
		V47.9C486,35.8,476.2,26,464.1,26z M181.8,426.6c0,5.5-4.5,10-10,10H96.8c-5.5,0-10-4.5-10-10V214.5c0-5.5,4.5-10,10-10h74.9
		c5.5,0,10,4.5,10,10V426.6z M134.3,167.6c-26.2,0-47.5-21.3-47.5-47.5c0-26.2,21.3-47.5,47.5-47.5c26.2,0,47.5,21.3,47.5,47.5
		C181.8,146.3,160.5,167.6,134.3,167.6z M441.3,429.3c0,5.5-4.5,10-10,10h-74.9c-5.5,0-10-4.5-10-10v-88c0-9.6-7.8-17.4-17.4-17.4
		s-17.4,7.8-17.4,17.4v85.3c0,5.5-4.5,10-10,10h-74.9c-5.5,0-10-4.5-10-10V214.5c0-5.5,4.5-10,10-10h74.9c5.5,0,10,4.5,10,10v27.1
		c3.9-1.4,7.9-2.7,11.8-3.7c16.8-4.6,34.2-5.6,51.6-3c14.4,2.1,25.7,5.7,34.7,10.9c19.3,11.2,31.8,33.5,31.8,56.8V429.3z"/><path fill="#231f20" d="M464.1,6H47.9C24.8,6,6,24.8,6,47.9v416.1C6,487.2,24.8,506,47.9,506h416.1c23.1,0,41.9-18.8,41.9-41.9V47.9
		C506,24.8,487.2,6,464.1,6z M486,464.1c0,12.1-9.8,21.9-21.9,21.9H47.9c-12.1,0-21.9-9.8-21.9-21.9V47.9C26,35.8,35.8,26,47.9,26
		h416.1c12.1,0,21.9,9.8,21.9,21.9V464.1z"/><path fill="#231f20" d="M171.8 204.5H96.8c-5.5 0-10 4.5-10 10v212.1c0 5.5 4.5 10 10 10h74.9c5.5 0 10-4.5 10-10V214.5C181.8 208.9 177.3 204.5 171.8 204.5zM161.8 416.6h-54.9V224.5h54.9V416.6zM409.6 245.8c-9-5.2-20.3-8.8-34.7-10.9-17.4-2.6-34.8-1.6-51.6 3-3.9 1.1-7.8 2.3-11.8 3.7v-27.1c0-5.5-4.5-10-10-10h-74.9c-5.5 0-10 4.5-10 10v212.1c0 5.5 4.5 10 10 10h74.9c5.5 0 10-4.5 10-10v-85.3c0-9.6 7.8-17.4 17.4-17.4s17.4 7.8 17.4 17.4v88c0 5.5 4.5 10 10 10h74.9c5.5 0 10-4.5 10-10V302.6C441.3 279.3 428.9 257 409.6 245.8zM421.3 419.3h-54.9v-78c0-20.6-16.8-37.4-37.4-37.4-20.6 0-37.4 16.8-37.4 37.4v75.3h-54.9V224.5h54.9v32.1c0 3.4 1.7 6.6 4.6 8.4 2.9 1.8 6.5 2.1 9.6.6 7.7-3.6 15.4-6.4 22.8-8.5 14.1-3.9 28.7-4.7 43.3-2.5 11.8 1.8 20.8 4.5 27.6 8.4 13.1 7.6 21.8 23.5 21.8 39.5V419.3zM134.3 72.7c-26.2 0-47.5 21.3-47.5 47.5 0 26.2 21.3 47.5 47.5 47.5 26.2 0 47.5-21.3 47.5-47.5C181.8 94 160.5 72.7 134.3 72.7zM134.3 147.6c-15.1 0-27.5-12.3-27.5-27.5s12.3-27.5 27.5-27.5 27.5 12.3 27.5 27.5S149.4 147.6 134.3 147.6z"/></svg>