<svg xmlns="http://www.w3.org/2000/svg" viewBox="0 0 101 101"><path d="M18.8 47.2h26c1.3 0 2.4-1.1 2.4-2.4v-26c0-1.3-1.1-2.4-2.4-2.4h-26c-1.3 0-2.4 1.1-2.4 2.4v26c0 1.3 1.1 2.4 2.4 2.4zm2.4-26h21.2v21.2H21.2V21.2zM82.2 47.2c1.3 0 2.4-1.1 2.4-2.4v-26c0-1.3-1.1-2.4-2.4-2.4h-26c-1.3 0-2.4 1.1-2.4 2.4v26c0 1.3 1.1 2.4 2.4 2.4h26zm-23.6-26h21.2v21.2H58.6V21.2zM18.8 61c-1.3 0-2.4 1.1-2.4 2.4 0 1.3 1.1 2.4 2.4 2.4l63.4.1c1.3 0 2.4-1.1 2.4-2.4 0-1.3-1.1-2.4-2.4-2.4L18.8 61zM18.8 84.5l63.4.1c1.3 0 2.4-1.1 2.4-2.4s-1.1-2.4-2.4-2.4l-63.4-.1c-1.3 0-2.4 1.1-2.4 2.4 0 1.3 1.1 2.4 2.4 2.4z"/></svg>