<svg xmlns="http://www.w3.org/2000/svg" data-name="Layer 1" viewBox="0 0 64 64"><circle cx="32" cy="32" r="27" fill="#c49a6c"/><path fill="#3c2415" d="M48.75,53.16a26.94,26.94,0,0,1-33.5,0L16,50.5A9.12,9.12,0,0,1,24.79,44H39.21A9.12,9.12,0,0,1,48,50.5Z"/><path fill="#a7613b" d="M32,15.21C43.45,15.21,42.47,26,42.47,26c1.68-.17,3,.49,3,2.86s-1,2.86-2.35,3a.29.29,0,0,0-.27.27c-.39,3.69-3,6.39-5.58,8.2a9.16,9.16,0,0,1-10.56,0c-2.57-1.81-5.19-4.52-5.58-8.2a.29.29,0,0,0-.27-.27c-1.31-.13-2.35-.63-2.35-3s1.27-3,2.94-2.86C21.47,26,20.54,15.21,32,15.21Z"/><path fill="#a7613b" d="M36,39v5.76a2,2,0,0,1-1.11,1.8h0a6.46,6.46,0,0,1-5.78,0h0A2,2,0,0,1,28,44.76V39Z"/><path fill="#fff" d="M36,44v.76a2,2,0,0,1-1.11,1.8,6.48,6.48,0,0,1-5.78,0A2,2,0,0,1,28,44.76V44H26v.76a4,4,0,0,0,2.22,3.58,8.39,8.39,0,0,0,7.56,0A4,4,0,0,0,38,44.76V44Z" opacity=".2"/><path fill="#262234" d="M36,41.08v1.5a9.16,9.16,0,0,1-8,0v-1.5a9.16,9.16,0,0,0,8,0Z" opacity=".1"/><circle cx="28.04" cy="28.15" r="1.7" fill="#3c2415"/><circle cx="35.96" cy="28.15" r="1.7" fill="#3c2415"/><path fill="#611c24" d="M35.87,32.53a1,1,0,0,1,1,1.25,5,5,0,0,1-9.68,0,1,1,0,0,1,1-1.25Z"/><path fill="#be1e2d" d="M34.42,36.91a5,5,0,0,1-4.84,0c.2-1.23,1.21-1.57,2.42-1.57S34.22,35.68,34.42,36.91Z"/><path fill="#fff" d="M34.87,32.53v.95a.37.37,0,0,1-.36.37h-5a.37.37,0,0,1-.36-.37v-.95Z"/><path fill="#3c2415" d="M44.26,25a1.17,1.17,0,0,0-.92-1.13,1.18,1.18,0,0,0-.38-2.3h-.05a1.18,1.18,0,0,0-.51-2.24,1.17,1.17,0,0,0,.31-.79,1.19,1.19,0,0,0-1.19-1.19,1.16,1.16,0,0,0-.35.07,1.16,1.16,0,0,0,.23-.67,1.19,1.19,0,0,0-1.19-1.19,1.16,1.16,0,0,0-.57.16,1.23,1.23,0,0,0,.08-.38,1.26,1.26,0,0,0-1.26-1.26,1.24,1.24,0,0,0-.84.33,1.26,1.26,0,0,0,.05-.25,1.32,1.32,0,0,0-2.29-.9A1.35,1.35,0,0,0,33,12.65a1.34,1.34,0,0,0-2.07,0,1.35,1.35,0,0,0-2.37.64,1.32,1.32,0,0,0-2.29.9,1.26,1.26,0,0,0,.05.25,1.24,1.24,0,0,0-.84-.33,1.26,1.26,0,0,0-1.26,1.26,1.23,1.23,0,0,0,.08.38,1.16,1.16,0,0,0-.57-.16,1.19,1.19,0,0,0-1.19,1.19,1.16,1.16,0,0,0,.23.67,1.16,1.16,0,0,0-.35-.07,1.19,1.19,0,0,0-1.19,1.19,1.17,1.17,0,0,0,.31.79,1.18,1.18,0,0,0-.51,2.24H21a1.18,1.18,0,0,0-.38,2.3,1.16,1.16,0,0,0,0,2.27c0,.07,0,.13,0,.2A9.56,9.56,0,0,0,21,28.47c.18.72,2.07.69,2.19,0s-.36-4.31,1.47-7.58h0a22.21,22.21,0,0,0,14.77,0c1.83,3.27,1.38,7,1.47,7.58s2,.67,2.19,0a9.56,9.56,0,0,0,.26-2.12c0-.07,0-.13,0-.2A1.17,1.17,0,0,0,44.26,25Z"/></svg>