<svg xmlns="http://www.w3.org/2000/svg" width="48" height="48" data-name="Layer 1" viewBox="0 0 48 48"><path d="M20.08,23.41h7.54a5,5,0,0,0,4.84-4.05V10.2s-1.81-4-9.11-4-8.54,3.35-8.54,3.35v4.71h8.83V16L11.88,16a6.21,6.21,0,0,0-6.25,6.22v5.16a5.45,5.45,0,0,0,5.45,5.46H14V29.48A6.06,6.06,0,0,1,20.08,23.41ZM18.72,12a1.51,1.51,0,1,1,1.51-1.51A1.52,1.52,0,0,1,18.72,12Z"/><path d="M36.92,15.17H34v3.35a6.06,6.06,0,0,1-6.06,6.07H20.38a5,5,0,0,0-4.84,4.05V37.8s1.81,4,9.11,4,8.54-3.35,8.54-3.35V33.77H24.36V32l11.76,0a6.21,6.21,0,0,0,6.25-6.22V20.63A5.45,5.45,0,0,0,36.92,15.17ZM29.28,36a1.51,1.51,0,1,1-1.51,1.51A1.52,1.52,0,0,1,29.28,36Z"/></svg>