<svg xmlns="http://www.w3.org/2000/svg" enable-background="new 0 0 512 512" viewBox="0 0 512 512"><path fill="none" d="M464.1,26H47.9C35.8,26,26,35.8,26,47.9v416.1c0,12.1,9.8,21.9,21.9,21.9h416.1c12.1,0,21.9-9.8,21.9-21.9
		V47.9C486,35.8,476.2,26,464.1,26z M435.9,113.1c-0.5,4.5-4.8,41.9-20.8,62.1c0.3,1.3,0.7,2.6,1,3.8c10.1,41.7,6.8,85.3-9.6,126.2
		c-16.3,40.7-44,74.6-80,98l0,0c-34.3,22.3-73.4,33.9-113.8,33.9c-5.2,0-10.5-0.2-15.8-0.6c-44.5-3.3-87.6-21.1-121.3-50
		c-3-2.6-4.2-6.7-3-10.5c1.2-3.8,4.5-6.5,8.5-7c21.7-2.3,42.3-8.3,61.7-17.7c-17.7-4.4-30.5-13.2-39-21.2
		C89.9,317,84.2,303.2,84,302.6c-1.6-4-0.5-8.6,2.8-11.4c3.3-2.8,8-3.2,11.7-0.9c9.7,5.9,18.4,5.1,25.1,2.2
		C100,283,89,267.3,83.9,254.7c-6.9-17.1-4.5-32.5-4.4-33.1c0.6-3.5,2.9-6.4,6.2-7.7c3.3-1.3,7-0.7,9.8,1.5
		c11.1,8.8,19.7,11.7,25.8,12.3c-20.8-23.7-26.6-49.5-27.7-68.2c-1.3-23.6,4.7-41,5-41.8c1.3-3.7,4.7-6.4,8.7-6.7
		c3.9-0.3,7.7,1.7,9.6,5.2c30.5,56.6,78.4,87,111.8,102.3c-20.4-35.4-16.1-80.8,12.3-111.8c0.4-0.4,0.7-0.8,1.1-1.2
		c2.2-2.4,4.7-5.2,8.1-7.5c55.1-37.1,105.4-14.7,134.5,19.2c2.4,0.5,12.4,0.9,36-13.6c3.2-2,7.3-2,10.6,0.1
		C434.5,105.7,436.3,109.3,435.9,113.1z"/><path fill="none" d="M370.5,131.4c0-0.1-0.1-0.1-0.1-0.2c-30.2-36-71-42.2-109-16.6c-1.4,0.9-2.8,2.5-4.4,4.3
		c-0.4,0.4-0.8,0.9-1.2,1.3c-25.7,28.1-26.4,71-1.5,99.9c1.7,2,3.6,4,5.5,5.7c2.7,2.5,3.8,6.3,2.8,9.9c-0.5,1.9-1,3.6-1.5,5.3
		c-0.8,2.6-2.6,4.7-4.9,6c-2.4,1.2-5.2,1.5-7.7,0.6c-27.3-8.9-90.8-35.3-134.8-98.7c-0.1,3.2-0.1,6.5,0.1,10.1
		c1.6,25.9,12.7,48,32.9,65.5c2.1,1.8,3.4,4.5,3.4,7.3c0.1,2.8-1,5.5-3,7.5c-0.6,0.6-8.9,8.4-23.7,8.4c-6.4,0-13.9-1.4-22.5-5.5
		c0.5,1.9,1.2,3.9,2,5.9c6.7,15.8,21.5,26.1,44.2,30.6c3.4,0.7,6.2,3.1,7.4,6.4s0.6,6.9-1.6,9.7c-6.4,8-19.7,18.6-36.4,20
		c10.8,10.5,28.5,21,55.8,19.2c0.7,0,1.3-0.1,2-0.2c4.5-0.5,8.9,2.1,10.5,6.4c1.6,4.3,0.1,9.1-3.6,11.7c-2.2,1.6-4.3,3-6.4,4.3
		c-21.2,13.8-44,23.4-68.2,28.8c62.2,41.6,145.1,43,209,1.5l0,0c66.2-43.1,99.5-126.4,81.1-202.7c-0.6-2.6-1.4-5.4-2.2-8.1
		c-1.1-3.7-0.1-7.7,2.7-10.3c7.5-7,12.5-21.8,15.5-34.7C384.1,143.4,373.4,134.8,370.5,131.4z"/><path fill="#231f20" d="M464.1,6H47.9C24.8,6,6,24.8,6,47.9v416.1C6,487.2,24.8,506,47.9,506h416.1c23.1,0,41.9-18.8,41.9-41.9V47.9
		C506,24.8,487.2,6,464.1,6z M486,464.1c0,12.1-9.8,21.9-21.9,21.9H47.9c-12.1,0-21.9-9.8-21.9-21.9V47.9C26,35.8,35.8,26,47.9,26
		h416.1c12.1,0,21.9,9.8,21.9,21.9V464.1z"/><path fill="#231f20" d="M431.3,103.6c-3.2-2-7.3-2-10.6-0.1c-23.6,14.5-33.6,14.1-36,13.6C355.6,83.3,305.3,60.9,250.2,98
		c-3.4,2.3-5.9,5-8.1,7.5c-0.4,0.4-0.7,0.8-1.1,1.2c-28.4,31-32.7,76.5-12.3,111.8c-33.4-15.3-81.3-45.7-111.8-102.3
		c-1.9-3.5-5.7-5.5-9.6-5.2c-4,0.3-7.3,2.9-8.7,6.7c-0.3,0.7-6.2,18.1-5,41.8c1,18.7,6.9,44.5,27.7,68.2
		c-6.1-0.5-14.7-3.5-25.8-12.3c-2.8-2.2-6.5-2.8-9.8-1.5c-3.3,1.3-5.7,4.2-6.2,7.7c-0.1,0.6-2.5,16,4.4,33.1
		c5.1,12.6,16,28.3,39.6,37.8c-6.7,2.8-15.4,3.7-25.1-2.2c-3.7-2.2-8.4-1.9-11.7,0.9c-3.3,2.8-4.4,7.4-2.8,11.4
		c0.2,0.6,5.9,14.4,19.8,27.5c8.5,8,21.2,16.8,39,21.2c-19.4,9.4-40.1,15.3-61.7,17.7c-4,0.4-7.3,3.2-8.5,7c-1.2,3.8,0,7.9,3,10.5
		c33.7,29,76.7,46.7,121.3,50c5.3,0.4,10.5,0.6,15.8,0.6c40.4,0,79.5-11.6,113.8-33.9l0,0c36-23.4,63.7-57.3,80-98
		c16.4-40.8,19.7-84.5,9.6-126.2c-0.3-1.3-0.6-2.5-1-3.8c16.1-20.2,20.3-57.6,20.8-62.1C436.3,109.3,434.5,105.7,431.3,103.6z
		 M397.1,165.3c-2.8,2.6-3.9,6.6-2.7,10.3c0.9,2.7,1.6,5.4,2.2,8.1c18.4,76.3-14.9,159.7-81.1,202.7l0,0
		c-63.8,41.5-146.8,40.2-209-1.5c24.2-5.4,47-15.1,68.2-28.8c2.1-1.4,4.2-2.8,6.4-4.3c3.8-2.6,5.2-7.5,3.6-11.7
		c-1.6-4.3-6-6.9-10.5-6.4c-0.6,0.1-1.3,0.1-2,0.2c-27.3,1.8-45.1-8.7-55.8-19.2c16.7-1.3,30.1-12,36.4-20c2.2-2.7,2.8-6.4,1.6-9.7
		s-4-5.7-7.4-6.4c-22.7-4.6-37.6-14.9-44.2-30.6c-0.8-2-1.5-4-2-5.9c8.6,4.1,16.2,5.5,22.5,5.5c14.8,0,23.2-7.8,23.7-8.4
		c2-2,3.1-4.7,3-7.5c-0.1-2.8-1.3-5.4-3.4-7.3C126.4,207,115.3,185,113.7,159c-0.2-3.5-0.2-6.9-0.1-10.1
		c44,63.4,107.5,89.8,134.8,98.7c2.6,0.8,5.3,0.6,7.7-0.6c2.4-1.2,4.2-3.4,4.9-6c0.5-1.7,1-3.4,1.5-5.3c1-3.6-0.1-7.4-2.8-9.9
		c-1.9-1.8-3.7-3.7-5.5-5.7c-24.9-28.9-24.2-71.9,1.5-99.9c0.4-0.4,0.8-0.9,1.2-1.3c1.5-1.7,3-3.3,4.4-4.3
		c38-25.6,78.8-19.4,109,16.6c0,0.1,0.1,0.1,0.1,0.2c2.9,3.4,13.6,12,42.1-0.8C409.6,143.5,404.6,158.3,397.1,165.3z"/></svg>