<svg xmlns="http://www.w3.org/2000/svg" enable-background="new 0 0 64 64" viewBox="0 0 64 64"><path d="M48.5,61h-36c-3.86,0-7-3.14-7-7c0-0.55,0.45-1,1-1h48c0.55,0,1,0.45,1,1C55.5,57.86,52.36,61,48.5,61z M7.6,55
				c0.46,2.28,2.48,4,4.9,4h36c2.42,0,4.43-1.72,4.9-4H7.6z"/><path d="M35.65,55H25.35C17.99,55,12,49.17,12,42V24c0-1.65,1.35-3,3-3h31c1.65,0,3,1.35,3,3v18C49,49.17,43.01,55,35.65,55z
				 M15,23c-0.55,0-1,0.45-1,1v18c0,6.07,5.09,11,11.35,11h10.29C41.91,53,47,48.07,47,42V24c0-0.55-0.45-1-1-1H15z"/><path d="M27.5 27h-10c-.55 0-1-.45-1-1s.45-1 1-1h10c.55 0 1 .45 1 1S28.05 27 27.5 27zM33.5 27h-2c-.55 0-1-.45-1-1s.45-1 1-1h2c.55 0 1 .45 1 1S34.05 27 33.5 27zM50 45h-2c-.55 0-1-.45-1-1s.45-1 1-1h2c3.86 0 7-3.14 7-7s-3.14-7-7-7h-2c-.55 0-1-.45-1-1s.45-1 1-1h2c4.96 0 9 4.04 9 9S54.96 45 50 45z"/><path d="M50 41h-2c-.55 0-1-.45-1-1s.45-1 1-1h2c1.65 0 3-1.35 3-3s-1.35-3-3-3h-2c-.55 0-1-.45-1-1s.45-1 1-1h2c2.76 0 5 2.24 5 5S52.76 41 50 41zM19 19c-.3 0-.6-.14-.8-.4-.33-.44-.24-1.07.2-1.4l3.37-2.53c.2-.15.23-.25.23-.25-.01-.04-.2-.31-.85-.55-1.17-.44-1.92-1.16-2.1-2.02-.15-.7.08-1.39.64-1.96l2.6-2.6c.39-.39 1.02-.39 1.41 0s.39 1.02 0 1.41l-2.6 2.6c-.08.08-.1.13-.1.14.01.04.2.31.85.55 1.24.46 1.99 1.23 2.13 2.16.11.78-.26 1.55-1.01 2.11L19.6 18.8C19.42 18.94 19.21 19 19 19zM38 19c-.3 0-.6-.14-.8-.4-.33-.44-.24-1.07.2-1.4l3.37-2.53c.2-.15.23-.25.23-.25-.01-.04-.2-.31-.85-.55-1.17-.44-1.92-1.16-2.1-2.02-.15-.7.08-1.39.64-1.96l2.6-2.6c.39-.39 1.02-.39 1.41 0s.39 1.02 0 1.41l-2.6 2.6c-.08.08-.1.13-.1.14.01.04.2.31.85.55 1.24.46 1.99 1.23 2.13 2.16.11.78-.26 1.55-1.01 2.11L38.6 18.8C38.42 18.94 38.21 19 38 19zM29 19c-.3 0-.6-.14-.8-.4-.33-.44-.24-1.07.2-1.4l3.37-2.53c.2-.15.23-.25.23-.25-.01-.04-.2-.31-.85-.55-1.17-.44-1.92-1.16-2.1-2.02-.15-.7.08-1.39.64-1.96l2.6-2.6c.39-.39 1.02-.39 1.41 0s.39 1.02 0 1.41l-2.6 2.6c-.08.08-.1.13-.1.14.01.04.2.31.85.55 1.24.46 1.99 1.23 2.13 2.16.11.78-.26 1.55-1.01 2.11L29.6 18.8C29.42 18.94 29.21 19 29 19z"/></svg>